<svg xmlns="http://www.w3.org/2000/svg" xmlns:xlink="http://www.w3.org/1999/xlink" width="285.351" height="245.328" viewBox="0 0 285.351 245.328">
  <defs>
    <linearGradient id="linear-gradient" x1="-1.004" y1="0.566" x2="4.116" y2="0.342" gradientUnits="objectBoundingBox">
      <stop offset="0"/>
      <stop offset="0.01"/>
      <stop offset="0.13" stop-opacity="0.69"/>
      <stop offset="0.25" stop-color="#1b1d22"/>
      <stop offset="1" stop-opacity="0"/>
    </linearGradient>
    <linearGradient id="linear-gradient-2" x1="-0.572" y1="-0.043" x2="-2.03" y2="1.543" gradientUnits="objectBoundingBox">
      <stop offset="0" stop-color="#0dc979"/>
      <stop offset="0.01"/>
      <stop offset="0.13" stop-opacity="0.69"/>
      <stop offset="0.25" stop-opacity="0.322"/>
      <stop offset="1" stop-opacity="0"/>
    </linearGradient>
  </defs>
  <g id="Forget-password" transform="translate(-52.566 -325.762)" opacity="0.64" style="mix-blend-mode: luminosity;isolation: isolate">
    <g id="Forget-password-2" data-name="Forget-password" transform="translate(52.566 325.762)">
      <path id="Path_1621" data-name="Path 1621" d="M118.11,24.6c-26.835,24.5-34.3,63.209-52.854,94.382C53.05,139.521,35.117,159.3,36.215,183.173c.309,6.679,2.151,13.186,4.22,19.548,2.35,7.215,5.064,14.411,9.4,20.637,11.29,16.208,32.045,23.378,51.783,24.213s39.25-3.63,58.88-5.835c12.959-1.452,26-1.915,39.023-2.45,22.77-.908,45.893-2.169,67.4-9.71s41.51-22.361,50.041-43.488c8.349-20.682,4.538-44.831-5.926-64.516s-26.99-35.493-44.468-49.324c-13.9-11-28.6-21.191-39.631-35.275-7.8-9.983-13.613-24.013-25.683-29.667C175.547-4.666,137.875,6.569,118.11,24.6Z" transform="translate(-36.167 -2.345)" fill="#2059f6" opacity="0.4"/>
      <ellipse id="Ellipse_457" data-name="Ellipse 457" cx="124.784" cy="10.273" rx="124.784" ry="10.273" transform="translate(12.018 187.353)" fill="#121024" opacity="0.18"/>
      <path id="Path_1622" data-name="Path 1622" d="M193.136,179a10.8,10.8,0,0,1-1.815,4.846c-3.884,6.87-8.24,13.613-14.266,18.731-8.857,7.5-20.455,10.718-31.654,13.749,1.007-.49,2.205-5.654,2.65-6.788.908-2.223,1.679-4.465,2.514-6.7,1.316-3.53,4.084-6.353,6.77-8.966a53.543,53.543,0,0,1,21.581-12.705A50.739,50.739,0,0,1,193.136,179Z" transform="translate(-46.269 -18.682)" fill="#8b18b8"/>
      <path id="Path_1623" data-name="Path 1623" d="M193.136,179a10.8,10.8,0,0,1-1.815,4.846c-3.884,6.87-8.24,13.613-14.266,18.731-8.857,7.5-20.455,10.718-31.654,13.749,1.007-.49,2.205-5.654,2.65-6.788.908-2.223,1.679-4.465,2.514-6.7,1.316-3.53,4.084-6.353,6.77-8.966a53.543,53.543,0,0,1,21.581-12.705A50.739,50.739,0,0,1,193.136,179Z" transform="translate(-46.269 -18.682)" fill="#1b1d22"/>
      <path id="Path_1624" data-name="Path 1624" d="M149.271,179.913c.908-6.353,1.815-12.869,4.42-18.786s7.033-11.353,13.068-13.567q.272,13.731.535,27.452c.1,5.291.191,10.682-1.325,15.745-2.659,8.876-11.9,19.294-20.791,22.225-1.316-4.265.908-10.727,1.525-15.156Z" transform="translate(-46.211 -15.774)" fill="#8b18b8"/>
      <path id="Path_1625" data-name="Path 1625" d="M149.271,179.913c.908-6.353,1.815-12.869,4.42-18.786s7.033-11.353,13.068-13.567q.272,13.731.535,27.452c.1,5.291.191,10.682-1.325,15.745-2.659,8.876-11.9,19.294-20.791,22.225-1.316-4.265.908-10.727,1.525-15.156Z" transform="translate(-46.211 -15.774)" fill="url(#linear-gradient)"/>
      <path id="Path_1628" data-name="Path 1628" d="M314.421,177.57a10.709,10.709,0,0,1-1.761,4.846c-3.884,6.87-8.249,13.613-14.266,18.74-8.857,7.487-20.456,10.718-31.654,13.74,1-.481,2.205-5.645,2.65-6.779.908-2.223,1.679-4.465,2.5-6.7,1.316-3.53,4.084-6.353,6.779-8.966a53.463,53.463,0,0,1,21.581-12.678A50.632,50.632,0,0,1,314.421,177.57Z" transform="translate(-57.491 -18.55)" fill="url(#linear-gradient-2)"/>
      <path id="Path_1629" data-name="Path 1629" d="M270.542,178.508c.908-6.353,1.815-12.869,4.42-18.786s7.024-11.317,13.077-13.613q.272,13.722.535,27.452c.1,5.291.191,10.672-1.325,15.745-2.668,8.876-11.9,19.294-20.791,22.225-1.316-4.265.908-10.727,1.525-15.156Z" transform="translate(-57.427 -15.64)" fill="#1b1d22"/>
      <rect id="Rectangle_2013" data-name="Rectangle 2013" width="91.387" height="31.745" rx="9.32" transform="translate(211.518 198.47) rotate(180)" fill="#8b18b8"/>
      <rect id="Rectangle_2014" data-name="Rectangle 2014" width="91.387" height="31.745" rx="9.32" transform="translate(211.518 160.717) rotate(180)" fill="#8b18b8"/>
      <rect id="Rectangle_2015" data-name="Rectangle 2015" width="91.387" height="31.745" rx="9.32" transform="translate(211.518 198.47) rotate(180)" fill="#0035c8"/>
      <rect id="Rectangle_2016" data-name="Rectangle 2016" width="91.387" height="31.745" rx="9.32" transform="translate(211.518 160.717) rotate(180)" fill="#0035c8"/>
      <rect id="Rectangle_2017" data-name="Rectangle 2017" width="91.387" height="31.745" rx="9.32" transform="translate(202.516 198.47) rotate(180)" fill="#2059f6"/>
      <path id="Path_1626" data-name="Path 1626" d="M158.62,152.908v14.838a8.449,8.449,0,0,0,8.458,8.458h74.471A8.449,8.449,0,0,0,250,167.746V152.908a8.449,8.449,0,0,0-8.449-8.458H167.078A8.458,8.458,0,0,0,158.62,152.908Z" transform="translate(-47.492 -15.487)" fill="#2059f6"/>
      <rect id="Rectangle_2018" data-name="Rectangle 2018" width="91.387" height="31.745" rx="9.32" transform="translate(211.518 120.387) rotate(180)" fill="#8b18b8"/>
      <rect id="Rectangle_2019" data-name="Rectangle 2019" width="91.387" height="31.745" rx="9.32" transform="translate(211.518 120.387) rotate(180)" fill="#0035c8"/>
      <rect id="Rectangle_2020" data-name="Rectangle 2020" width="91.387" height="31.745" rx="9.32" transform="translate(202.516 120.387) rotate(180)" fill="#2059f6"/>
      <circle id="Ellipse_458" data-name="Ellipse 458" cx="3.594" cy="3.594" r="3.594" transform="translate(184.601 101.257)" fill="#fff"/>
      <circle id="Ellipse_459" data-name="Ellipse 459" cx="3.594" cy="3.594" r="3.594" transform="translate(173.802 101.257)" fill="#fff"/>
      <circle id="Ellipse_460" data-name="Ellipse 460" cx="3.594" cy="3.594" r="3.594" transform="translate(163.002 101.257)" fill="#fff"/>
      <circle id="Ellipse_461" data-name="Ellipse 461" cx="3.594" cy="3.594" r="3.594" transform="translate(184.601 141.251)" fill="#fff"/>
      <circle id="Ellipse_462" data-name="Ellipse 462" cx="3.594" cy="3.594" r="3.594" transform="translate(173.802 141.251)" fill="#fff"/>
      <circle id="Ellipse_463" data-name="Ellipse 463" cx="3.594" cy="3.594" r="3.594" transform="translate(163.002 141.251)" fill="#fff"/>
      <circle id="Ellipse_464" data-name="Ellipse 464" cx="3.594" cy="3.594" r="3.594" transform="translate(184.601 181.236)" fill="#fff"/>
      <circle id="Ellipse_465" data-name="Ellipse 465" cx="3.594" cy="3.594" r="3.594" transform="translate(173.802 181.236)" fill="#fff"/>
      <circle id="Ellipse_466" data-name="Ellipse 466" cx="3.594" cy="3.594" r="3.594" transform="translate(163.002 181.236)" fill="#fff"/>
      <path id="Path_1627" data-name="Path 1627" d="M314.421,177.57a10.709,10.709,0,0,1-1.761,4.846c-3.884,6.87-8.249,13.613-14.266,18.74-8.857,7.487-20.456,10.718-31.654,13.74,1-.481,2.205-5.645,2.65-6.779.908-2.223,1.679-4.465,2.5-6.7,1.316-3.53,4.084-6.353,6.779-8.966a53.463,53.463,0,0,1,21.581-12.678A50.632,50.632,0,0,1,314.421,177.57Z" transform="translate(-57.491 -18.55)" fill="#1b1d22"/>
      <g id="Q83r0t" transform="translate(111.258 118.885)">
        <path id="Path_1630" data-name="Path 1630" d="M193.781,173.589a2.85,2.85,0,0,1-2.06-.817c-.408-.39-.79-.808-1.207-1.189a2.541,2.541,0,0,0-2.949-.572,2.6,2.6,0,0,0-1.679,2.5v1.815a2.85,2.85,0,0,1-2.913,2.8h-3.385a2.895,2.895,0,0,1-2.94-2.913v-1.815a2.577,2.577,0,0,0-1.706-2.423,2.514,2.514,0,0,0-2.859.545c-.408.381-.79.8-1.2,1.189a2.94,2.94,0,0,1-4.2,0c-.826-.817-1.661-1.634-2.478-2.468a2.85,2.85,0,0,1,0-4.165c.381-.39.79-.762,1.162-1.153a2.541,2.541,0,0,0,.59-2.859,2.577,2.577,0,0,0-2.414-1.724h-1.815a2.886,2.886,0,0,1-2.959-3.076v-3.2a2.831,2.831,0,0,1,2.677-2.913c.617-.054,1.243,0,1.869,0a2.632,2.632,0,0,0,2.614-1.688,2.6,2.6,0,0,0-.708-3.031c-.363-.372-.744-.735-1.107-1.116a2.822,2.822,0,0,1,0-4c.908-.908,1.815-1.815,2.723-2.65a2.922,2.922,0,0,1,4.02.054c.427.408.817.835,1.252,1.234a2.514,2.514,0,0,0,2.859.526,2.541,2.541,0,0,0,1.688-2.432q0-.844,0-1.688a2.913,2.913,0,0,1,3.076-3.013h3.158a2.9,2.9,0,0,1,3.031,2.94v1.634a2.723,2.723,0,0,0,4.674,1.942c.372-.363.735-.744,1.116-1.107a2.931,2.931,0,0,1,4.147,0c.908.835,1.724,1.688,2.568,2.55a2.822,2.822,0,0,1,0,4.075c-.408.417-.844.817-1.252,1.234a2.723,2.723,0,0,0,1.624,4.538c.635.073,1.28,0,1.924.045a2.659,2.659,0,0,1,2.831,2.723q.054,1.815,0,3.675a2.723,2.723,0,0,1-2.922,2.8h-1.688a2.532,2.532,0,0,0-2.35,1.724,2.478,2.478,0,0,0,.563,2.8c.408.417.844.817,1.243,1.234a2.841,2.841,0,0,1,0,4.084c-.835.908-1.7,1.715-2.559,2.559A2.841,2.841,0,0,1,193.781,173.589ZM171.937,155.72a9.329,9.329,0,1,0,2.749-6.6A9.338,9.338,0,0,0,171.937,155.72Z" transform="translate(-158.763 -133.345)" fill="#fff"/>
      </g>
      <path id="Path_1631" data-name="Path 1631" d="M134.728,173.666a13.014,13.014,0,0,0-3.685,2.5,5.354,5.354,0,0,0-1.634,4.02c.136,1.815,1.434,3.285,2.8,4.474,1.57,1.37,3.458,2.8,3.585,4.873,1.116-.826,2.124-1.815,3.276-2.577,2.015-1.37,4.383-2.105,6.6-3.122s4.4-2.45,5.445-4.646a12.9,12.9,0,0,0,.98-4.374,21.491,21.491,0,0,0,.127-4.828,7.06,7.06,0,0,0-2.006-4.293,9.8,9.8,0,0,0-2.85-1.652,9.121,9.121,0,0,0-3.131-.908,6.407,6.407,0,0,0-5.663,3.966c-.454,1.216-.245,2.586-.69,3.793C137.351,172.35,135.989,172.995,134.728,173.666Z" transform="translate(-44.79 -17.214)" fill="#fc682d"/>
      <path id="Path_1632" data-name="Path 1632" d="M65.914,212.291a4.21,4.21,0,0,0-1.18-.545,1.171,1.171,0,0,0-1.18.381,1.28,1.28,0,0,0,0,1.225c.181.39.445.735.617,1.125a6.433,6.433,0,0,0,.436,1.1,2.949,2.949,0,0,0,1.588.935,24.376,24.376,0,0,1,7.414,4.229,2.975,2.975,0,0,0,.681.481,2.487,2.487,0,0,0,2.36-.5,12.07,12.07,0,0,0,3.367-4.211,1.261,1.261,0,0,0,.191-.563,1.034,1.034,0,0,0-.172-.508c-1.525-2.6-4.22-1.18-6.589-1.18a15.1,15.1,0,0,1-7.532-1.969Z" transform="translate(-38.685 -21.707)" fill="#ffbbab"/>
      <path id="Path_1633" data-name="Path 1633" d="M143.592,213.477s-4.973,8.812-14.185,6.416-21.363-13.359-21.363-13.359-12.279,6.852-21.091,8.168l-5.881,1.18a4.238,4.238,0,0,1-2.8-4.274s24.3-14.012,26.708-14.675a15.146,15.146,0,0,1,8.812,0c3.739,1.071,18.15,5.146,18.15,5.146Z" transform="translate(-40.06 -20.28)" fill="#1b1d22"/>
      <path id="Path_1634" data-name="Path 1634" d="M59.97,170.1l7.687,21.318,17.787,1.552v-1.552l-16.326-1.724L61.894,169.52Z" transform="translate(-5.552 -15.654)" fill="#1b1d22"/>
      <path id="Path_1635" data-name="Path 1635" d="M137.528,160.055c-.336.563-1.025.908-1.243,1.506s.254,1.506.517,2.251c.372,1.035.254,2.2.617,3.24a1.243,1.243,0,0,0,.363.59,1.28,1.28,0,0,0,.554.209,7.86,7.86,0,0,0,2.35.145.644.644,0,0,1,.454.064.563.563,0,0,1,.2.39,12.578,12.578,0,0,1-.091,5.981c-.163.644-.354,1.425.127,1.888a1.261,1.261,0,0,0,.6.309c1.488.363,2.922-.744,3.93-1.9a17.553,17.553,0,0,0,2.305-3.385,3.575,3.575,0,0,0,.4-1.089,4.093,4.093,0,0,0-.209-1.47,24.893,24.893,0,0,1-.771-4.964c-.109-2.151.045-4.392-.78-6.353a3.358,3.358,0,0,0-1.3-1.67,4.211,4.211,0,0,0-2.323-.372c-1.561.054-3.276.272-4.338,1.416C138.58,157.151,137.936,159.356,137.528,160.055Z" transform="translate(-45.421 -16.499)" fill="#ffbbab"/>
      <path id="Path_1636" data-name="Path 1636" d="M148.443,171.918s-6.425,3.331-8.367,5.935-5.118,4.538-3.893,9.474-.272,12.487-.272,12.487,2.786,8.785,9.647,11.008,4.982,1.516,4.982,1.516,3.63-16.335,5.073-20.873S154.714,171.191,148.443,171.918Z" transform="translate(-45.391 -18.025)" fill="#ff2020"/>
      <path id="Path_1637" data-name="Path 1637" d="M139.928,156.3a4.465,4.465,0,0,0,1.425,2.723c.762.717,1.706,1.2,2.487,1.888a3.086,3.086,0,0,1,1.252,2.723,1.4,1.4,0,0,1,1.706.545,1.144,1.144,0,0,1-.181,1.18,1.416,1.416,0,0,1-1.125.463,4.447,4.447,0,0,1,2.006,1.624c.554.808.817,1.815,1.316,2.632a8.613,8.613,0,0,0,2.305,2.169,3.159,3.159,0,0,1,1,1.053,16.337,16.337,0,0,0,.662,1.906,27.773,27.773,0,0,0,1.815,2.323,8.449,8.449,0,0,1,1.461,4.365,7.077,7.077,0,0,1,0-1.389c.154-.281.318-.554.463-.844a7.542,7.542,0,0,0,.572-1.588,15.991,15.991,0,0,0,.109-3.784c0-2.723,2.55-7.814.5-10.128a20.848,20.848,0,0,0-2.6-1.815c-1.815-1.5-2.069-4.138-3.2-6.2a7.841,7.841,0,0,0-4.746-3.712C144.466,151.7,139.593,152.535,139.928,156.3Z" transform="translate(-45.761 -16.203)" fill="#fc682d"/>
      <path id="Path_1638" data-name="Path 1638" d="M146.5,181s-4.066,10.981-4.864,11.8,7.823,5.654,7.823,5.654,5.618-10.672,5.354-15.3S149.657,176.643,146.5,181Z" transform="translate(-45.916 -18.639)" fill="#ff2020"/>
      <path id="Path_1639" data-name="Path 1639" d="M146.731,198.4s-.3,3.539-4.637,3.476S122.8,201.6,122.8,201.6c-1.316-.672-3.113-.79-4.093-1.9-.463-.526-.708-1.216-1.162-1.761a3.893,3.893,0,0,0-2.35-1.207,11.715,11.715,0,0,0-2.723-.073,1.116,1.116,0,0,1,0-1.47,2.722,2.722,0,0,1,1.4-.762,8.649,8.649,0,0,1,6.543.908,7.785,7.785,0,0,0,1.815.971,5.327,5.327,0,0,0,1.47.082c5.563-.263,11.054-1.452,16.617-1.7a9.52,9.52,0,0,1,3.857.4,4.538,4.538,0,0,1,2.559,3.3Z" transform="translate(-43.198 -20.083)" fill="#ffbbab"/>
      <path id="Path_1640" data-name="Path 1640" d="M207.99,75.116a10.89,10.89,0,0,1-10.89,10.89H122.42a10.89,10.89,0,0,1,0-21.78h2.532A21.463,21.463,0,0,1,145.616,37h6.353a21.445,21.445,0,0,1,19.058,11.571,12.706,12.706,0,0,1,5.853-1.407h1.643a12.9,12.9,0,0,1,12.9,12.9V60.6a12.759,12.759,0,0,1-.517,3.63h6.18a10.89,10.89,0,0,1,10.9,10.89Z" transform="translate(-43.137 -5.55)" fill="#fff"/>
    </g>
  </g>
</svg>
