<svg xmlns="http://www.w3.org/2000/svg" width="382.704" height="380.835" viewBox="0 0 382.704 380.835">
  <g id="Login-vector" transform="translate(-1826.729 2048.982)" opacity="0.64" style="mix-blend-mode: luminosity;isolation: isolate">
    <g id="g12" transform="translate(1826.729 -2048.982)">
      <path id="path350" d="M2208.288-287.41H1827.872c-.632,0-1.143-.882-1.143-1.966s.511-1.969,1.143-1.969h380.416c.632,0,1.145.882,1.145,1.969s-.512,1.966-1.145,1.966" transform="translate(-1826.729 668.245)" fill="#fee2bf"/>
      <path id="path414" d="M2536.419-1388.287H2381.728v-355.882h154.691v355.882" transform="translate(-2245.777 1765.189)" fill="#adeff7" opacity="0.52"/>
      <path id="path416" d="M2282.019-363.16l-3.26,9.341a57.833,57.833,0,0,0-1.231,6.6c0,5.082,22.621-4.318,17.552-6.568a5.455,5.455,0,0,1-2.048-3.563c-.235-2.668,1.9-6.01,1.9-6.01l-12.917.2" transform="translate(-2167.102 722.618)" fill="#f8a492"/>
      <path id="path418" d="M2272.274-316.187l2.518-8.276s5.513,2.316,8.234,1.927a81.529,81.529,0,0,0,8.031-1.943c10.856,3.622,19.753,5.379,18.133,8.293h-36.917" transform="translate(-2163.135 693.262)" fill="#2d2861"/>
      <path id="path420" d="M2032.236-430.2s-3.668,3.625-3.749,4.955-.327,15.592,1.169,16.922,5.9,2.276,4.481,3.772c-1.068,1.133-9.289.892-14.737.588-1.591-.088-3.583-12.95-4.213-14.841-.914-2.747-4.21-8.72-3.377-10.634.4-.931,3.413-3.057,6.146-4.844,2.871-1.881,5.621-6.072,5.621-6.072l8.658,10.154" transform="translate(-1966.372 780.756)" fill="#f8a492"/>
      <path id="path422" d="M2318.8-1087.637l4.357,20.423s3.687,69.956,1.871,82.792c-1.79,12.614-29.114,78.631-29.114,78.631l-16.1-2.355s20.5-74.378,20.844-79.973c.225-3.661-6.895-30.717-6.895-30.717l-9.759-60.723,27.915-6.97,6.875-1.107" transform="translate(-2168.833 1269.48)" fill="#2d2861"/>
      <path id="path424" d="M2089.143-1087.077s-9.566,87.841-13.509,95.082c-3.214,5.9-38.239,64.384-38.239,64.384s7.535,10.638,13.368,11.951c0,0,45.813-57.725,51.294-67.392,4.622-8.152,27.8-84.369,27.8-84.369l-.977-18.744-39.735-.911" transform="translate(-1985.791 1269.057)" fill="#352e73"/>
      <path id="path426" d="M2424.036-1225.525c-.624-.9-1.026-1.6-.869-1.708a3.923,3.923,0,0,1,2.613-.448c.46.281,1.035,1.248,1.5,1.529a1.347,1.347,0,0,0,1.7-.3c.389-.549-1.32-2.779-1.32-2.779a8.791,8.791,0,0,0-2.864-2.388c-5.069-2.028-5.213-1.094-5.856-1.372-.761-.327-6.839-9.654-6.839-9.654s-18.094-27.363-19.022-28.875l-5.513-33.664-17.33-1.835s6.963,36.453,7.659,38.292,29.444,35.911,31.877,38.994c0,0,1.552,4.772,2.623,7.734s3.4,5.281,3.828,6.068a4.3,4.3,0,0,0,1.28-.451,11.024,11.024,0,0,1,6.535-9.138" transform="translate(-2237.099 1435.125)" fill="#f8a492"/>
      <path id="path428" d="M2396.729-1386.607l-19.913,2.058s-.915-16.546-.915-24.44c0-9.576,1.068-21.768,2.211-21.5,3.2.745,7.251,2.394,9.818,5.97,8.884,12.372,8.8,37.913,8.8,37.913" transform="translate(-2241.377 1528.351)" fill="#fcc13f"/>
      <path id="path430" d="M2101.172-1238.565c-3.044-4.991-3.726-4.282-4.1-4.932-.441-.767.049-12.643.049-12.643s1.218-35.006,1.349-36.894l15.579-32.318-13.466-12.686s-16.037,35.633-16.556,37.651,3.188,49.592,3.384,53.789c0,0-1.561,5.075-2.44,8.3s-.313,6.7-.425,7.643a30.689,30.689,0,0,0,.568,7.31c.669,3.439,1.561-.121,1.561-.121s-.131-6.591.375-6.506c.389.065.255,3.665.957,7.479.183.98.363,1.947.539,2.835.454,2.329,1.969,2.721,1.868.209a24.3,24.3,0,0,0-.34-3.4,19.812,19.812,0,0,1-.137-3.2,26.765,26.765,0,0,1-.124-3.3c.1.052.346-.343.568.692.271,1.245.274,4.011.807,5.81.3,1.019.807,3.191.807,3.191a21.122,21.122,0,0,0,1.561,3.122c1.1-.1.764-2.505.177-3.838a16.333,16.333,0,0,0-.545-3.308s-.2-4.857.464-4.89c.284-.013.754,2.953,1.659,5.791.84,2.636,2.107,5.16,2.636,5.076.9-.147.268-3.172.268-3.172s-.552-2.1-.682-2.806c-.154-.833-.431-3.361-.431-3.361s-.565-8.835.069-8.812a4.1,4.1,0,0,1,2.463,1.293c.222.536.124,1.734.343,2.27a1.416,1.416,0,0,0,1.61.83c.66-.219.562-3.22.562-3.22a9.787,9.787,0,0,0-.977-3.88" transform="translate(-2020.963 1458.542)" fill="#f8a492"/>
      <path id="path432" d="M2015.678-416.146s7.7,23.7,11.006,24.865c.879.31,5.82,1.561,6.614,3.452a.693.693,0,0,1,.052.167,1.967,1.967,0,0,1-1.972,2.3h-15.694s-2.227-10.628-3.109-15.3c0,0-4.664-11.412-4.145-12.447s7.248-3.044,7.248-3.044" transform="translate(-1963.891 762.474)" fill="#2d2861"/>
      <path id="path434" d="M2561.211-986.768a6.944,6.944,0,0,1-6.261-1.777c.029.062.055.124.088.183a2.559,2.559,0,0,1-.19,2.685,7.709,7.709,0,0,0-1.349,7.323s1.614-4.677,3.2-5.539a17.321,17.321,0,0,0,2.959-2.182,3.765,3.765,0,0,0,1.551-.692" transform="translate(-2375.143 1194.66)" fill="#f47458"/>
      <path id="path436" d="M2195.55-1441.407s-10.559,1.466-13.335,3.508c-3.129,2.3-12.819,13.015-12.819,13.015s19.178,55.69,19.2,66c.016,7.976-2.806,27.559-2.806,27.559s39.164,2.473,54-3.384c0,0-4.683-23.29-4.683-29.408s-2.633-67.242-4.5-70.446-5.647-5.023-12.8-6.584-22.249-.258-22.249-.258" transform="translate(-2085.457 1536.976)" fill="#fcc13f"/>
      <path id="path438" d="M2279.874-1510.308l-2.613,17.108s9.543,20.37,15.239,18.6c4.778-1.48,1.839-19.505,1.839-19.505s-2.606-9.681-1.823-14.524-12.643-1.682-12.643-1.682" transform="translate(-2166.9 1589.38)" fill="#f7a491"/>
      <path id="path440" d="M2299.906-1508.626c.78-4.844-12.643-1.682-12.643-1.682l-.216,1.421a7.915,7.915,0,0,0,1.454,2.384,17.723,17.723,0,0,0,11.738,5.275,26.145,26.145,0,0,1-.333-7.4" transform="translate(-2174.29 1589.379)" fill="#f47458"/>
      <path id="path442" d="M2275.74-1622.453c-.379-.137-3.041,19.485,2.009,24.884s14.893,7.166,18.421,2.913c3.906-4.7,3.707-25.792-4.145-31.345s-16.285,3.547-16.285,3.547" transform="translate(-2164.968 1677.324)" fill="#f7a491"/>
      <path id="path444" d="M2259.1-1663.69a21.842,21.842,0,0,0-11.444,6.483c-2.757.323-6.5,1.836-10.37,8.2-4.759,7.822-1.244,16.49,4.292,20.743s5.474,9.187,5.474,9.187l.862-2.564a14.147,14.147,0,0,0,.692-5.984,11.721,11.721,0,0,0-.895-3.6c-1.333-2.838,2.861-4.726,4.033-7.087.9-1.819.95-5.983,2.375-8.988l1.7-2.3s3.929-3.037,7.773-2.182,3.289-13.489-4.5-11.911" transform="translate(-2135.03 1704.516)" fill="#13375b"/>
      <path id="path446" d="M2286.6-1558.692c.042,2.394-1.055,4.354-2.446,4.376s-2.551-1.9-2.593-4.292,1.058-4.354,2.449-4.376,2.551,1.9,2.59,4.292" transform="translate(-2170.149 1628.387)" fill="#f7a491"/>
      <path id="path448" d="M2536.4-896.165l-52.244,14.312c-1.525.418-3.152-.8-3.544-2.642l-5.572-35.587c-.95-4.517-.865-9.468,2.868-10.491l45.64-12.506a3.022,3.022,0,0,1,3.485,2.417l11.134,40.64a3.024,3.024,0,0,1-1.767,3.857" transform="translate(-2315.847 1160.394)" fill="#d6007e"/>
      <path id="path450" d="M2571.922-906.246l-54.736,14.995a3.066,3.066,0,0,1-3.537-2.616l-8.995-41.221a2.985,2.985,0,0,1,1.816-3.658l47.525-13.022a2.979,2.979,0,0,1,3.416,2.195l14.629,43.07a.2.2,0,0,1-.118.258" transform="translate(-2338.524 1166.954)" fill="#fc008b"/>
      <path id="path452" d="M2579.59-971.4l-3.26.892-2.949-10.762c-.65-2.381-2.8-3.87-4.795-3.325l-7.025,1.924c-2,.549-3.086,2.926-2.433,5.307l2.949,10.762-3.26.892-2.946-10.762c-1.241-4.524.833-9.05,4.622-10.089l7.025-1.924c3.789-1.039,7.881,1.8,9.122,6.323l2.949,10.762" transform="translate(-2376.991 1194.777)" fill="#fc008b"/>
      <path id="path454" d="M2562.174-972.4s9.262-7.022,9.021-8.413-9.929-4.54-9.808-3.211,4.785,3.694,4.785,3.694-6.66-3.815-6.66-1.937,3.753,3.207,3.753,3.207-3.874-2-4.115-1.029,2.42,2.482,2.42,2.482-2.362-1.512-2.544-.425,3.148,5.631,3.148,5.631" transform="translate(-2379.639 1191.49)" fill="#f8a492"/>
      <path id="path456" d="M2593.365-996.632a9.089,9.089,0,0,0-2.724-2.325l-.941,3.7a2.6,2.6,0,0,1,1.787.176c.46.281,1.035,1.248,1.5,1.528a1.348,1.348,0,0,0,1.7-.3c.388-.549-1.319-2.779-1.319-2.779" transform="translate(-2402.805 1202.522)" fill="#f8a492"/>
      <path id="path458" d="M2130.358-1429.45a35.814,35.814,0,0,0-14.541,8.07c-6.3,6.055-17.676,37.413-17.676,37.413l17.918,11.141,9.446-17.313,4.853-39.311" transform="translate(-2031.657 1527.563)" fill="#fcc13f"/>
      <path id="path488" d="M2598.319-1452.975h-10.112v-377.007h10.112v377.007" transform="translate(-2401.678 1829.982)" fill="#2e2e2e"/>
      <path id="path490" d="M2629.235-1829.969c0,.96-.068,376.85-.068,376.85H2722.8V-1809.18l-93.56-20.789" transform="translate(-2432.604 1829.972)" fill="#818181"/>
      <path id="path492" d="M2743.759-1584.3a13.133,13.133,0,0,0-9.961,8.776l-45.748-5.631a13.105,13.105,0,0,0-7.878-8.946l.438-97.636a13.122,13.122,0,0,0,10.674-8.609l45.787,9.73a13.178,13.178,0,0,0,7.123,8.838Zm-3.4-105.331-51.953-11.043a9.448,9.448,0,0,1-9.426,9.406,9.653,9.653,0,0,1-1.982-.209l-.467,104.168a9.447,9.447,0,0,1,8.293,9.416l51.96,6.4a9.443,9.443,0,0,1,9.426-9.4,9.472,9.472,0,0,1,1.172.072l.461-99.524a9.447,9.447,0,0,1-7.483-9.282" transform="translate(-2468.363 1732.35)" fill="#2e2e2e"/>
      <path id="path494" d="M2862.432-794.561a13.135,13.135,0,0,0-8.946,8.916l-7.345-.013a13.142,13.142,0,0,0-8.917-8.933v-113.3a13.122,13.122,0,0,0,9.661-8.867l7.561.653a13.241,13.241,0,0,0,8.185,8.936Zm-4.8-124.915-13.786-1.189a9.446,9.446,0,0,1-9.433,9.445c-.271,0-.545-.013-.823-.036v119.78a9.439,9.439,0,0,1,9.426,9.442l13.577.026a9.445,9.445,0,0,1,9.446-9.429h.016l.209-118.614a9.447,9.447,0,0,1-8.632-9.426" transform="translate(-2586.955 1143.408)" fill="#2e2e2e"/>
      <path id="path496" d="M2709.945-804.468a13.128,13.128,0,0,0-8.946,8.929l-4.876-.01a13.176,13.176,0,0,0-8.914-8.861l-.892-116.426a12.971,12.971,0,0,0,6.438-3.56,12.992,12.992,0,0,0,3.224-5.373l5.764.5a12.968,12.968,0,0,0,8.2,8.942Zm-5-128.171-12.029-1.039a9.442,9.442,0,0,1-9.429,9.517c-.271,0-.549-.01-.826-.036l.94,122.9a9.444,9.444,0,0,1,9.426,9.374l11.092.02a9.444,9.444,0,0,1,9.442-9.445h.016V-923.229a9.446,9.446,0,0,1-8.632-9.41" transform="translate(-2472.994 1153.233)" fill="#2e2e2e"/>
      <path id="path498" d="M2708.783-1082.746c0,4.086-1.708,7.4-3.815,7.4s-3.815-3.315-3.815-7.4,1.708-7.4,3.815-7.4,3.815,3.312,3.815,7.4" transform="translate(-2486.957 1271.372)" fill="#ffa42f"/>
      <path id="path500" d="M2721.114-1070.571v5.833h-8a13.486,13.486,0,0,1-.366-3.175,13.507,13.507,0,0,1,.255-2.659h8.106" transform="translate(-2495.715 1256.594)" fill="#ff7a03"/>
      <path id="path502" d="M2733.917-1094.314c0,6.16-2.574,11.15-5.748,11.15s-5.748-4.99-5.748-11.15,2.574-11.15,5.748-11.15,5.748,4.994,5.748,11.15" transform="translate(-2503.014 1282.939)" fill="#fcc13f"/>
      <path id="path504" d="M2740.21-1094.314c0,6.16-2.573,11.15-5.748,11.15s-5.749-4.99-5.749-11.15,2.573-11.15,5.749-11.15,5.748,4.994,5.748,11.15" transform="translate(-2507.766 1282.939)" fill="#fee2bf"/>
      <path id="path528" d="M2403.645-1695.53l-3.877,6.761-4.768-1.349-3.864,6.215-6.875-1.14.434-2.616,5.125.849,3.981-6.4,4.7,1.329,2.848-4.968,2.3,1.32" transform="translate(-2247.69 1729.461)" fill="#fff"/>
      <path id="path530" d="M1993.085-1558.521l-4.974-4.644-6.434,2.6-5.206-5.6-6,4.883-6.166-6.075-6.082,3.815-6.891-4.876,1.845-2.606,5.154,3.645,6.415-4.024,5.931,5.84,6.1-4.965,5.745,6.183,6.284-2.541,4.612,4.308,3.779-2.531,1.777,2.655-5.885,3.939" transform="translate(-1920.807 1634.749)" fill="#fff"/>
      <path id="path534" d="M44.83,32.39,18.081,40.078l8.005-12.284L0,16.226,10.324,0,32.445,18.349,39.591,6.274,44.83,32.39" transform="translate(44.567 14.729) rotate(-14)" fill="#fff"/>
    </g>
  </g>
</svg>
